# xmcd CD database file
#
# Track frame offsets:
#	150
#	75547
#	163035
#	196747
#	234865
#	275212
#
# Disc length: 3864 seconds
#
# Revision: 0
# Processed by: cddbd v1.5.1PL0 Copyright (c) Steve Scherf et al.
# Submitted via: CDex 1.51
#
DISCID=440f1606
DTITLE=CONTE CANDOLI CARL FONTANA quintet - THE COMPLETE PHOENIX RECORDINGS 4 OF 6
DYEAR=2002
DGENRE=Jazz
TTITLE0=ALL OF YOU
TTITLE1=GIRL OF MY DREAMS
TTITLE2=DARN THAT DREAM
TTITLE3=THE NIGHT HAS A THOUSAND EYES
TTITLE4=I CANT GET STARTED
TTITLE5=CENTERPIECE
EXTD=YEAR: 2002
EXTT0=
EXTT1=
EXTT2=
EXTT3=
EXTT4=
EXTT5=
PLAYORDER=
